<?xml version="1.0" standalone="no"?><!DOCTYPE svg PUBLIC "-//W3C//DTD SVG 1.1//EN" "http://www.w3.org/Graphics/SVG/1.1/DTD/svg11.dtd"><svg t="1676247001088" class="icon" viewBox="0 0 1024 1024" version="1.1" xmlns="http://www.w3.org/2000/svg" p-id="3697" xmlns:xlink="http://www.w3.org/1999/xlink" width="200" height="200"><path d="M796.2 225.9h-96v60h96c38.6 0 70 31.4 70 70v375.8c0 38.6-31.4 70-70 70H228c-38.6 0-70-31.4-70-70V355.9c0-38.6 31.4-70 70-70h96v-60h-96c-71.7 0-130 58.3-130 130v375.8c0 71.7 58.3 130 130 130h568.1c71.7 0 130-58.3 130-130V355.9c0.1-71.7-58.2-130-129.9-130z" fill="#000002" p-id="3698"></path><path d="M444.1 225.9h136.1v60H444.1zM384.1 335.9c16.5 0 30-13.5 30-30v-100c0-16.5-13.5-30-30-30s-30 13.5-30 30v100c0 16.5 13.5 30 30 30zM638.1 335.9c16.5 0 30-13.5 30-30v-100c0-16.5-13.5-30-30-30s-30 13.5-30 30v100c0 16.5 13.5 30 30 30z" fill="#000002" p-id="3699"></path><path d="M511.3 749.8c-51.5 0-99.8-20-136.2-56.4s-56.4-84.8-56.4-136.2 20-99.8 56.4-136.2 84.8-56.4 136.2-56.4c51.5 0 99.8 20 136.2 56.4C684 457.3 704 505.7 704 557.1s-20 99.8-56.4 136.2c-36.4 36.5-84.8 56.5-136.3 56.5z m0-333.1c-77.4 0-140.4 63-140.4 140.4s63 140.4 140.4 140.4 140.4-63 140.4-140.4-63-140.4-140.4-140.4z" fill="#000002" p-id="3700"></path><path d="M515 580.3h-63.5c-13.3 0-24-10.7-24-24s10.7-24 24-24H491v-87.5c0-13.3 10.7-24 24-24s24 10.7 24 24v111.5c0 13.2-10.8 24-24 24z" fill="#000002" p-id="3701"></path></svg>